<mxfile host="app.diagrams.net" modified="2022-10-06T04:09:26.497Z" agent="5.0 (Windows NT 10.0; Win64; x64) AppleWebKit/537.36 (KHTML, like Gecko) Chrome/106.0.0.0 Safari/537.36" etag="8T7IVErKHEz0NWEh5434" version="20.3.6" type="github">
  <diagram id="ij2i_KdfuDkdz7vN2ZKl" name="Page-1">
    <mxGraphModel dx="1320" dy="516" grid="0" gridSize="10" guides="1" tooltips="1" connect="1" arrows="1" fold="1" page="1" pageScale="1" pageWidth="850" pageHeight="1100" math="0" shadow="0">
      <root>
        <mxCell id="0" />
        <mxCell id="1" parent="0" />
        <mxCell id="vAXPG5cR5VqlfgmjMZMS-16" value="" style="rounded=0;whiteSpace=wrap;html=1;" parent="1" vertex="1">
          <mxGeometry x="60" y="380" width="460" height="100" as="geometry" />
        </mxCell>
        <mxCell id="vAXPG5cR5VqlfgmjMZMS-1" value="" style="swimlane;startSize=0;" parent="1" vertex="1">
          <mxGeometry x="60" y="130" width="460" height="230" as="geometry" />
        </mxCell>
        <mxCell id="vAXPG5cR5VqlfgmjMZMS-2" value="Section3Slot-Homepage slot" style="text;html=1;align=center;verticalAlign=middle;resizable=0;points=[];autosize=1;strokeColor=none;fillColor=none;" parent="vAXPG5cR5VqlfgmjMZMS-1" vertex="1">
          <mxGeometry width="180" height="30" as="geometry" />
        </mxCell>
        <mxCell id="vAXPG5cR5VqlfgmjMZMS-3" value="" style="swimlane;startSize=0;" parent="vAXPG5cR5VqlfgmjMZMS-1" vertex="1">
          <mxGeometry x="20" y="40" width="430" height="160" as="geometry" />
        </mxCell>
        <mxCell id="vAXPG5cR5VqlfgmjMZMS-4" value="TciFeaturedProductComponent instance" style="text;html=1;align=center;verticalAlign=middle;resizable=0;points=[];autosize=1;strokeColor=none;fillColor=none;" parent="vAXPG5cR5VqlfgmjMZMS-3" vertex="1">
          <mxGeometry x="10" width="240" height="30" as="geometry" />
        </mxCell>
        <mxCell id="vAXPG5cR5VqlfgmjMZMS-5" value="Feature&amp;nbsp;&lt;br&gt;products" style="whiteSpace=wrap;html=1;aspect=fixed;" parent="vAXPG5cR5VqlfgmjMZMS-3" vertex="1">
          <mxGeometry y="60" width="100" height="100" as="geometry" />
        </mxCell>
        <mxCell id="vAXPG5cR5VqlfgmjMZMS-7" value="/c/11585" style="whiteSpace=wrap;html=1;aspect=fixed;" parent="vAXPG5cR5VqlfgmjMZMS-3" vertex="1">
          <mxGeometry x="320" y="60" width="100" height="100" as="geometry" />
        </mxCell>
        <mxCell id="vAXPG5cR5VqlfgmjMZMS-8" value="" style="rounded=0;whiteSpace=wrap;html=1;" parent="vAXPG5cR5VqlfgmjMZMS-3" vertex="1">
          <mxGeometry x="110" y="60" width="200" height="100" as="geometry" />
        </mxCell>
        <mxCell id="vAXPG5cR5VqlfgmjMZMS-9" value="item 1" style="rounded=0;whiteSpace=wrap;html=1;" parent="vAXPG5cR5VqlfgmjMZMS-3" vertex="1">
          <mxGeometry x="110" y="60" width="70" height="100" as="geometry" />
        </mxCell>
        <mxCell id="vAXPG5cR5VqlfgmjMZMS-11" value="item 3" style="rounded=0;whiteSpace=wrap;html=1;" parent="vAXPG5cR5VqlfgmjMZMS-3" vertex="1">
          <mxGeometry x="240" y="60" width="70" height="100" as="geometry" />
        </mxCell>
        <mxCell id="vAXPG5cR5VqlfgmjMZMS-10" value="item 2" style="rounded=0;whiteSpace=wrap;html=1;" parent="vAXPG5cR5VqlfgmjMZMS-3" vertex="1">
          <mxGeometry x="170" y="60" width="70" height="100" as="geometry" />
        </mxCell>
        <mxCell id="vAXPG5cR5VqlfgmjMZMS-14" value="viewMoreProducts" style="text;html=1;align=center;verticalAlign=middle;resizable=0;points=[];autosize=1;strokeColor=none;fillColor=none;" parent="vAXPG5cR5VqlfgmjMZMS-3" vertex="1">
          <mxGeometry x="310" y="30" width="120" height="30" as="geometry" />
        </mxCell>
        <mxCell id="vAXPG5cR5VqlfgmjMZMS-13" value="products" style="text;html=1;align=center;verticalAlign=middle;resizable=0;points=[];autosize=1;strokeColor=none;fillColor=none;" parent="vAXPG5cR5VqlfgmjMZMS-3" vertex="1">
          <mxGeometry x="160" y="30" width="70" height="30" as="geometry" />
        </mxCell>
        <mxCell id="vAXPG5cR5VqlfgmjMZMS-12" value="name" style="text;html=1;align=center;verticalAlign=middle;resizable=0;points=[];autosize=1;strokeColor=none;fillColor=none;" parent="vAXPG5cR5VqlfgmjMZMS-3" vertex="1">
          <mxGeometry x="25" y="30" width="50" height="30" as="geometry" />
        </mxCell>
        <mxCell id="vAXPG5cR5VqlfgmjMZMS-15" value="Product&lt;br&gt;T0001" style="whiteSpace=wrap;html=1;aspect=fixed;" parent="1" vertex="1">
          <mxGeometry x="140" y="410" width="60" height="60" as="geometry" />
        </mxCell>
        <mxCell id="vAXPG5cR5VqlfgmjMZMS-17" value="ProductModel" style="text;html=1;align=center;verticalAlign=middle;resizable=0;points=[];autosize=1;strokeColor=none;fillColor=none;" parent="1" vertex="1">
          <mxGeometry x="60" y="380" width="100" height="30" as="geometry" />
        </mxCell>
        <mxCell id="vAXPG5cR5VqlfgmjMZMS-19" value="Product&lt;br&gt;T0002" style="whiteSpace=wrap;html=1;aspect=fixed;" parent="1" vertex="1">
          <mxGeometry x="220" y="410" width="60" height="60" as="geometry" />
        </mxCell>
        <mxCell id="vAXPG5cR5VqlfgmjMZMS-20" value="Product&lt;br&gt;T0003" style="whiteSpace=wrap;html=1;aspect=fixed;" parent="1" vertex="1">
          <mxGeometry x="300" y="410" width="60" height="60" as="geometry" />
        </mxCell>
        <mxCell id="vAXPG5cR5VqlfgmjMZMS-22" value="Product&lt;br&gt;...." style="whiteSpace=wrap;html=1;aspect=fixed;" parent="1" vertex="1">
          <mxGeometry x="380" y="410" width="60" height="60" as="geometry" />
        </mxCell>
        <mxCell id="vAXPG5cR5VqlfgmjMZMS-30" value="" style="rounded=0;whiteSpace=wrap;html=1;" parent="1" vertex="1">
          <mxGeometry x="755.5" y="440" width="650" height="110" as="geometry" />
        </mxCell>
        <mxCell id="vAXPG5cR5VqlfgmjMZMS-31" value="" style="swimlane;startSize=0;" parent="1" vertex="1">
          <mxGeometry x="696" y="153" width="764" height="230" as="geometry" />
        </mxCell>
        <mxCell id="vAXPG5cR5VqlfgmjMZMS-32" value="Section4Slot-Homepage slot" style="text;html=1;align=center;verticalAlign=middle;resizable=0;points=[];autosize=1;strokeColor=none;fillColor=none;" parent="vAXPG5cR5VqlfgmjMZMS-31" vertex="1">
          <mxGeometry width="180" height="30" as="geometry" />
        </mxCell>
        <mxCell id="vAXPG5cR5VqlfgmjMZMS-33" value="" style="swimlane;startSize=0;" parent="vAXPG5cR5VqlfgmjMZMS-31" vertex="1">
          <mxGeometry x="20" y="40" width="322" height="160" as="geometry" />
        </mxCell>
        <mxCell id="vAXPG5cR5VqlfgmjMZMS-34" value="TciSelectedSupportingBannerComponent instance" style="text;html=1;align=center;verticalAlign=middle;resizable=0;points=[];autosize=1;strokeColor=none;fillColor=none;" parent="vAXPG5cR5VqlfgmjMZMS-33" vertex="1">
          <mxGeometry width="290" height="30" as="geometry" />
        </mxCell>
        <mxCell id="vAXPG5cR5VqlfgmjMZMS-35" value="Feature&amp;nbsp;&lt;br&gt;products" style="whiteSpace=wrap;html=1;aspect=fixed;" parent="vAXPG5cR5VqlfgmjMZMS-33" vertex="1">
          <mxGeometry y="60" width="100" height="100" as="geometry" />
        </mxCell>
        <mxCell id="vAXPG5cR5VqlfgmjMZMS-37" value="" style="rounded=0;whiteSpace=wrap;html=1;" parent="vAXPG5cR5VqlfgmjMZMS-33" vertex="1">
          <mxGeometry x="110" y="60" width="200" height="100" as="geometry" />
        </mxCell>
        <mxCell id="vAXPG5cR5VqlfgmjMZMS-38" value="Banner 1" style="rounded=0;whiteSpace=wrap;html=1;" parent="vAXPG5cR5VqlfgmjMZMS-33" vertex="1">
          <mxGeometry x="110" y="60" width="70" height="100" as="geometry" />
        </mxCell>
        <mxCell id="vAXPG5cR5VqlfgmjMZMS-39" value="Banner 3" style="rounded=0;whiteSpace=wrap;html=1;" parent="vAXPG5cR5VqlfgmjMZMS-33" vertex="1">
          <mxGeometry x="240" y="60" width="70" height="100" as="geometry" />
        </mxCell>
        <mxCell id="vAXPG5cR5VqlfgmjMZMS-40" value="Banner 2" style="rounded=0;whiteSpace=wrap;html=1;" parent="vAXPG5cR5VqlfgmjMZMS-33" vertex="1">
          <mxGeometry x="170" y="60" width="70" height="100" as="geometry" />
        </mxCell>
        <mxCell id="vAXPG5cR5VqlfgmjMZMS-42" value="supportingSearchComponentList" style="text;html=1;align=center;verticalAlign=middle;resizable=0;points=[];autosize=1;strokeColor=none;fillColor=none;" parent="vAXPG5cR5VqlfgmjMZMS-33" vertex="1">
          <mxGeometry x="115" y="30" width="200" height="30" as="geometry" />
        </mxCell>
        <mxCell id="vAXPG5cR5VqlfgmjMZMS-43" value="name" style="text;html=1;align=center;verticalAlign=middle;resizable=0;points=[];autosize=1;strokeColor=none;fillColor=none;" parent="vAXPG5cR5VqlfgmjMZMS-33" vertex="1">
          <mxGeometry x="25" y="30" width="50" height="30" as="geometry" />
        </mxCell>
        <mxCell id="vAXPG5cR5VqlfgmjMZMS-45" value="TciSupportingSearchComponent Model" style="text;html=1;align=center;verticalAlign=middle;resizable=0;points=[];autosize=1;strokeColor=none;fillColor=none;" parent="1" vertex="1">
          <mxGeometry x="750.5" y="440" width="230" height="30" as="geometry" />
        </mxCell>
        <mxCell id="vAXPG5cR5VqlfgmjMZMS-52" value="TciSupportingResearchComponent1" style="rounded=0;whiteSpace=wrap;html=1;" parent="1" vertex="1">
          <mxGeometry x="765.5" y="470" width="200" height="30" as="geometry" />
        </mxCell>
        <mxCell id="vAXPG5cR5VqlfgmjMZMS-54" value="TciSupportingResearchComponent3" style="rounded=0;whiteSpace=wrap;html=1;" parent="1" vertex="1">
          <mxGeometry x="1195.5" y="470" width="200" height="30" as="geometry" />
        </mxCell>
        <mxCell id="vAXPG5cR5VqlfgmjMZMS-55" value="TciSupportingResearchComponent..." style="rounded=0;whiteSpace=wrap;html=1;" parent="1" vertex="1">
          <mxGeometry x="980.5" y="510" width="200" height="30" as="geometry" />
        </mxCell>
        <mxCell id="vAXPG5cR5VqlfgmjMZMS-59" value="" style="endArrow=classic;html=1;rounded=0;entryX=0.5;entryY=0;entryDx=0;entryDy=0;exitX=0.5;exitY=1;exitDx=0;exitDy=0;" parent="1" source="vAXPG5cR5VqlfgmjMZMS-39" target="vAXPG5cR5VqlfgmjMZMS-54" edge="1">
          <mxGeometry width="50" height="50" relative="1" as="geometry">
            <mxPoint x="1091" y="367" as="sourcePoint" />
            <mxPoint x="1141" y="317" as="targetPoint" />
          </mxGeometry>
        </mxCell>
        <mxCell id="vAXPG5cR5VqlfgmjMZMS-60" value="" style="endArrow=classic;html=1;rounded=0;entryX=0.5;entryY=0;entryDx=0;entryDy=0;exitX=0.5;exitY=1;exitDx=0;exitDy=0;" parent="1" source="vAXPG5cR5VqlfgmjMZMS-40" target="vAXPG5cR5VqlfgmjMZMS-53" edge="1">
          <mxGeometry width="50" height="50" relative="1" as="geometry">
            <mxPoint x="824" y="330" as="sourcePoint" />
            <mxPoint x="1068" y="457" as="targetPoint" />
          </mxGeometry>
        </mxCell>
        <mxCell id="vAXPG5cR5VqlfgmjMZMS-61" value="" style="endArrow=classic;html=1;rounded=0;entryX=0.5;entryY=0;entryDx=0;entryDy=0;exitX=0.5;exitY=1;exitDx=0;exitDy=0;" parent="1" source="vAXPG5cR5VqlfgmjMZMS-38" target="vAXPG5cR5VqlfgmjMZMS-52" edge="1">
          <mxGeometry width="50" height="50" relative="1" as="geometry">
            <mxPoint x="730" y="378.5" as="sourcePoint" />
            <mxPoint x="974" y="505.5" as="targetPoint" />
          </mxGeometry>
        </mxCell>
        <mxCell id="vAXPG5cR5VqlfgmjMZMS-62" value="" style="endArrow=classic;html=1;rounded=0;entryX=0.5;entryY=0;entryDx=0;entryDy=0;exitX=0.5;exitY=1;exitDx=0;exitDy=0;" parent="1" target="vAXPG5cR5VqlfgmjMZMS-19" edge="1">
          <mxGeometry width="50" height="50" relative="1" as="geometry">
            <mxPoint x="282" y="330" as="sourcePoint" />
            <mxPoint x="226" y="457" as="targetPoint" />
          </mxGeometry>
        </mxCell>
        <mxCell id="vAXPG5cR5VqlfgmjMZMS-63" value="" style="endArrow=classic;html=1;rounded=0;entryX=0.5;entryY=0;entryDx=0;entryDy=0;exitX=0.5;exitY=1;exitDx=0;exitDy=0;" parent="1" target="vAXPG5cR5VqlfgmjMZMS-20" edge="1">
          <mxGeometry width="50" height="50" relative="1" as="geometry">
            <mxPoint x="358" y="330" as="sourcePoint" />
            <mxPoint x="302" y="457" as="targetPoint" />
          </mxGeometry>
        </mxCell>
        <mxCell id="vAXPG5cR5VqlfgmjMZMS-64" value="" style="endArrow=classic;html=1;rounded=0;entryX=0.5;entryY=0;entryDx=0;entryDy=0;exitX=0.5;exitY=1;exitDx=0;exitDy=0;" parent="1" target="vAXPG5cR5VqlfgmjMZMS-15" edge="1">
          <mxGeometry width="50" height="50" relative="1" as="geometry">
            <mxPoint x="224" y="330" as="sourcePoint" />
            <mxPoint x="168" y="457" as="targetPoint" />
          </mxGeometry>
        </mxCell>
        <mxCell id="UYXNw3XjxuYZxI37rGrB-1" value="Reference" style="text;html=1;align=center;verticalAlign=middle;resizable=0;points=[];autosize=1;strokeColor=none;fillColor=none;" parent="1" vertex="1">
          <mxGeometry x="796" y="390" width="73" height="26" as="geometry" />
        </mxCell>
        <mxCell id="UYXNw3XjxuYZxI37rGrB-2" value="Reference" style="text;html=1;align=center;verticalAlign=middle;resizable=0;points=[];autosize=1;strokeColor=none;fillColor=none;" parent="1" vertex="1">
          <mxGeometry x="1064" y="396" width="73" height="26" as="geometry" />
        </mxCell>
        <mxCell id="UYXNw3XjxuYZxI37rGrB-3" value="Reference" style="text;html=1;align=center;verticalAlign=middle;resizable=0;points=[];autosize=1;strokeColor=none;fillColor=none;" parent="1" vertex="1">
          <mxGeometry x="920" y="380" width="73" height="26" as="geometry" />
        </mxCell>
        <mxCell id="UYXNw3XjxuYZxI37rGrB-4" value="Reference" style="text;html=1;align=center;verticalAlign=middle;resizable=0;points=[];autosize=1;strokeColor=none;fillColor=none;" parent="1" vertex="1">
          <mxGeometry x="129" y="358" width="73" height="26" as="geometry" />
        </mxCell>
        <mxCell id="UYXNw3XjxuYZxI37rGrB-5" value="Reference" style="text;html=1;align=center;verticalAlign=middle;resizable=0;points=[];autosize=1;strokeColor=none;fillColor=none;" parent="1" vertex="1">
          <mxGeometry x="258" y="357" width="73" height="26" as="geometry" />
        </mxCell>
        <mxCell id="UYXNw3XjxuYZxI37rGrB-6" value="Reference" style="text;html=1;align=center;verticalAlign=middle;resizable=0;points=[];autosize=1;strokeColor=none;fillColor=none;" parent="1" vertex="1">
          <mxGeometry x="339" y="357" width="73" height="26" as="geometry" />
        </mxCell>
        <mxCell id="UYXNw3XjxuYZxI37rGrB-35" value="" style="endArrow=classic;html=1;rounded=0;entryX=0.5;entryY=0;entryDx=0;entryDy=0;exitX=0.5;exitY=1;exitDx=0;exitDy=0;" parent="1" source="UYXNw3XjxuYZxI37rGrB-31" target="vAXPG5cR5VqlfgmjMZMS-54" edge="1">
          <mxGeometry width="50" height="50" relative="1" as="geometry">
            <mxPoint x="1570" y="360" as="sourcePoint" />
            <mxPoint x="1616" y="431" as="targetPoint" />
          </mxGeometry>
        </mxCell>
        <mxCell id="UYXNw3XjxuYZxI37rGrB-36" value="" style="endArrow=classic;html=1;rounded=0;entryX=0.5;entryY=0;entryDx=0;entryDy=0;exitX=0.5;exitY=1;exitDx=0;exitDy=0;" parent="1" source="UYXNw3XjxuYZxI37rGrB-32" target="vAXPG5cR5VqlfgmjMZMS-53" edge="1">
          <mxGeometry width="50" height="50" relative="1" as="geometry">
            <mxPoint x="1303" y="323" as="sourcePoint" />
            <mxPoint x="1401" y="431" as="targetPoint" />
          </mxGeometry>
        </mxCell>
        <mxCell id="UYXNw3XjxuYZxI37rGrB-37" value="" style="endArrow=classic;html=1;rounded=0;entryX=0.5;entryY=0;entryDx=0;entryDy=0;exitX=0.5;exitY=1;exitDx=0;exitDy=0;" parent="1" source="UYXNw3XjxuYZxI37rGrB-30" target="vAXPG5cR5VqlfgmjMZMS-52" edge="1">
          <mxGeometry width="50" height="50" relative="1" as="geometry">
            <mxPoint x="1209" y="371.5" as="sourcePoint" />
            <mxPoint x="1186" y="431" as="targetPoint" />
          </mxGeometry>
        </mxCell>
        <mxCell id="UYXNw3XjxuYZxI37rGrB-38" value="Reference" style="text;html=1;align=center;verticalAlign=middle;resizable=0;points=[];autosize=1;strokeColor=none;fillColor=none;" parent="1" vertex="1">
          <mxGeometry x="1210" y="384" width="73" height="26" as="geometry" />
        </mxCell>
        <mxCell id="UYXNw3XjxuYZxI37rGrB-40" value="Reference" style="text;html=1;align=center;verticalAlign=middle;resizable=0;points=[];autosize=1;strokeColor=none;fillColor=none;" parent="1" vertex="1">
          <mxGeometry x="1332.5" y="390" width="73" height="26" as="geometry" />
        </mxCell>
        <mxCell id="UYXNw3XjxuYZxI37rGrB-26" value="" style="swimlane;startSize=0;" parent="1" vertex="1">
          <mxGeometry x="1100" y="194" width="339.5" height="160" as="geometry" />
        </mxCell>
        <mxCell id="UYXNw3XjxuYZxI37rGrB-28" value="Feature&amp;nbsp;&lt;br&gt;products New" style="whiteSpace=wrap;html=1;aspect=fixed;" parent="UYXNw3XjxuYZxI37rGrB-26" vertex="1">
          <mxGeometry y="60" width="100" height="100" as="geometry" />
        </mxCell>
        <mxCell id="UYXNw3XjxuYZxI37rGrB-29" value="" style="rounded=0;whiteSpace=wrap;html=1;" parent="UYXNw3XjxuYZxI37rGrB-26" vertex="1">
          <mxGeometry x="110" y="60" width="200" height="100" as="geometry" />
        </mxCell>
        <mxCell id="UYXNw3XjxuYZxI37rGrB-30" value="Banner 1&amp;nbsp;" style="rounded=0;whiteSpace=wrap;html=1;" parent="UYXNw3XjxuYZxI37rGrB-26" vertex="1">
          <mxGeometry x="110" y="60" width="70" height="100" as="geometry" />
        </mxCell>
        <mxCell id="UYXNw3XjxuYZxI37rGrB-31" value="Banner 3" style="rounded=0;whiteSpace=wrap;html=1;" parent="UYXNw3XjxuYZxI37rGrB-26" vertex="1">
          <mxGeometry x="240" y="60" width="70" height="100" as="geometry" />
        </mxCell>
        <mxCell id="UYXNw3XjxuYZxI37rGrB-32" value="Banner 2" style="rounded=0;whiteSpace=wrap;html=1;" parent="UYXNw3XjxuYZxI37rGrB-26" vertex="1">
          <mxGeometry x="170" y="60" width="70" height="100" as="geometry" />
        </mxCell>
        <mxCell id="UYXNw3XjxuYZxI37rGrB-33" value="supportingSearchComponentList" style="text;html=1;align=center;verticalAlign=middle;resizable=0;points=[];autosize=1;strokeColor=none;fillColor=none;" parent="UYXNw3XjxuYZxI37rGrB-26" vertex="1">
          <mxGeometry x="115" y="30" width="200" height="30" as="geometry" />
        </mxCell>
        <mxCell id="UYXNw3XjxuYZxI37rGrB-34" value="name" style="text;html=1;align=center;verticalAlign=middle;resizable=0;points=[];autosize=1;strokeColor=none;fillColor=none;" parent="UYXNw3XjxuYZxI37rGrB-26" vertex="1">
          <mxGeometry x="25" y="30" width="50" height="30" as="geometry" />
        </mxCell>
        <mxCell id="UYXNw3XjxuYZxI37rGrB-27" value="TciSelectedSupportingBannerComponent instance &lt;b&gt;cloned&lt;/b&gt;" style="text;html=1;align=center;verticalAlign=middle;resizable=0;points=[];autosize=1;strokeColor=none;fillColor=none;" parent="UYXNw3XjxuYZxI37rGrB-26" vertex="1">
          <mxGeometry x="9.5" y="-2" width="330" height="30" as="geometry" />
        </mxCell>
        <mxCell id="WIBwwws4gp8x0dsZTthk-1" value="" style="rounded=0;whiteSpace=wrap;html=1;" parent="1" vertex="1">
          <mxGeometry x="447" y="966" width="161" height="65" as="geometry" />
        </mxCell>
        <mxCell id="WIBwwws4gp8x0dsZTthk-43" style="edgeStyle=orthogonalEdgeStyle;rounded=0;orthogonalLoop=1;jettySize=auto;html=1;" parent="1" source="WIBwwws4gp8x0dsZTthk-2" edge="1">
          <mxGeometry relative="1" as="geometry">
            <mxPoint x="528" y="1120.5" as="targetPoint" />
          </mxGeometry>
        </mxCell>
        <mxCell id="WIBwwws4gp8x0dsZTthk-2" value="uid: contactContenPage" style="rounded=0;whiteSpace=wrap;html=1;" parent="1" vertex="1">
          <mxGeometry x="163" y="1096" width="138" height="49" as="geometry" />
        </mxCell>
        <mxCell id="WIBwwws4gp8x0dsZTthk-3" value="" style="rounded=0;whiteSpace=wrap;html=1;" parent="1" vertex="1">
          <mxGeometry x="756" y="1038.5" width="205" height="60" as="geometry" />
        </mxCell>
        <mxCell id="WIBwwws4gp8x0dsZTthk-37" style="edgeStyle=orthogonalEdgeStyle;rounded=0;orthogonalLoop=1;jettySize=auto;html=1;entryX=0.5;entryY=1;entryDx=0;entryDy=0;" parent="1" source="WIBwwws4gp8x0dsZTthk-4" target="WIBwwws4gp8x0dsZTthk-3" edge="1">
          <mxGeometry relative="1" as="geometry" />
        </mxCell>
        <mxCell id="WIBwwws4gp8x0dsZTthk-4" value="" style="rounded=0;whiteSpace=wrap;html=1;" parent="1" vertex="1">
          <mxGeometry x="533" y="1093" width="137" height="52" as="geometry" />
        </mxCell>
        <mxCell id="WIBwwws4gp8x0dsZTthk-5" value="CMSLinkComponent" style="text;html=1;align=center;verticalAlign=middle;resizable=0;points=[];autosize=1;strokeColor=none;fillColor=none;" parent="1" vertex="1">
          <mxGeometry x="526" y="1069" width="129" height="26" as="geometry" />
        </mxCell>
        <mxCell id="WIBwwws4gp8x0dsZTthk-6" value="CMSNavigationNode" style="text;html=1;align=center;verticalAlign=middle;resizable=0;points=[];autosize=1;strokeColor=none;fillColor=none;" parent="1" vertex="1">
          <mxGeometry x="440" y="939" width="130" height="26" as="geometry" />
        </mxCell>
        <mxCell id="WIBwwws4gp8x0dsZTthk-7" value="CMSNavigationEntry" style="text;html=1;align=center;verticalAlign=middle;resizable=0;points=[];autosize=1;strokeColor=none;fillColor=none;" parent="1" vertex="1">
          <mxGeometry x="727" y="1017" width="129" height="26" as="geometry" />
        </mxCell>
        <mxCell id="WIBwwws4gp8x0dsZTthk-8" value="FollowUsNavNode" style="text;html=1;align=center;verticalAlign=middle;resizable=0;points=[];autosize=1;strokeColor=none;fillColor=none;" parent="1" vertex="1">
          <mxGeometry x="450" y="968" width="117" height="26" as="geometry" />
        </mxCell>
        <mxCell id="WIBwwws4gp8x0dsZTthk-13" value="" style="edgeStyle=orthogonalEdgeStyle;rounded=0;orthogonalLoop=1;jettySize=auto;html=1;" parent="1" source="WIBwwws4gp8x0dsZTthk-9" target="WIBwwws4gp8x0dsZTthk-3" edge="1">
          <mxGeometry relative="1" as="geometry">
            <Array as="points">
              <mxPoint x="665" y="1004" />
              <mxPoint x="665" y="1004" />
            </Array>
          </mxGeometry>
        </mxCell>
        <mxCell id="WIBwwws4gp8x0dsZTthk-9" value="contactPageNavNode" style="text;html=1;align=center;verticalAlign=middle;resizable=0;points=[];autosize=1;strokeColor=none;fillColor=none;" parent="1" vertex="1">
          <mxGeometry x="476" y="991" width="135" height="26" as="geometry" />
        </mxCell>
        <mxCell id="WIBwwws4gp8x0dsZTthk-10" value="uid:contactPageLink" style="text;html=1;align=center;verticalAlign=middle;resizable=0;points=[];autosize=1;strokeColor=none;fillColor=none;" parent="1" vertex="1">
          <mxGeometry x="538" y="1106" width="126" height="26" as="geometry" />
        </mxCell>
        <mxCell id="WIBwwws4gp8x0dsZTthk-11" value="PageModel" style="text;html=1;align=center;verticalAlign=middle;resizable=0;points=[];autosize=1;strokeColor=none;fillColor=none;" parent="1" vertex="1">
          <mxGeometry x="171" y="1067" width="79" height="26" as="geometry" />
        </mxCell>
        <mxCell id="WIBwwws4gp8x0dsZTthk-12" value="" style="endArrow=classic;html=1;rounded=0;exitX=0.085;exitY=0.808;exitDx=0;exitDy=0;exitPerimeter=0;" parent="1" source="WIBwwws4gp8x0dsZTthk-8" edge="1">
          <mxGeometry width="50" height="50" relative="1" as="geometry">
            <mxPoint x="417" y="975" as="sourcePoint" />
            <mxPoint x="485" y="1004" as="targetPoint" />
            <Array as="points">
              <mxPoint x="460" y="1004" />
            </Array>
          </mxGeometry>
        </mxCell>
        <mxCell id="WIBwwws4gp8x0dsZTthk-14" value="4. Give an entry for your page node" style="text;html=1;align=center;verticalAlign=middle;resizable=0;points=[];autosize=1;strokeColor=none;fillColor=none;" parent="1" vertex="1">
          <mxGeometry x="611" y="980" width="207" height="26" as="geometry" />
        </mxCell>
        <mxCell id="WIBwwws4gp8x0dsZTthk-15" value="uid: contactPageNavNodeEntry" style="text;html=1;align=center;verticalAlign=middle;resizable=0;points=[];autosize=1;strokeColor=none;fillColor=none;" parent="1" vertex="1">
          <mxGeometry x="753" y="1036" width="185" height="26" as="geometry" />
        </mxCell>
        <mxCell id="WIBwwws4gp8x0dsZTthk-16" value="+ contactPageNavNode" style="text;html=1;align=center;verticalAlign=middle;resizable=0;points=[];autosize=1;strokeColor=none;fillColor=none;" parent="1" vertex="1">
          <mxGeometry x="779" y="1052" width="145" height="26" as="geometry" />
        </mxCell>
        <mxCell id="WIBwwws4gp8x0dsZTthk-17" value="+ contactPageLink" style="text;html=1;align=center;verticalAlign=middle;resizable=0;points=[];autosize=1;strokeColor=none;fillColor=none;" parent="1" vertex="1">
          <mxGeometry x="780" y="1069" width="117" height="26" as="geometry" />
        </mxCell>
        <mxCell id="WIBwwws4gp8x0dsZTthk-25" value="3. Create a CMSLink for your page" style="text;html=1;align=center;verticalAlign=middle;resizable=0;points=[];autosize=1;strokeColor=none;fillColor=none;" parent="1" vertex="1">
          <mxGeometry x="303" y="1093" width="203" height="26" as="geometry" />
        </mxCell>
        <mxCell id="WIBwwws4gp8x0dsZTthk-27" value="" style="ellipse;html=1;shape=startState;fillColor=#000000;strokeColor=#ff0000;" parent="1" vertex="1">
          <mxGeometry x="25" y="983" width="30" height="30" as="geometry" />
        </mxCell>
        <mxCell id="WIBwwws4gp8x0dsZTthk-28" value="" style="edgeStyle=orthogonalEdgeStyle;html=1;verticalAlign=bottom;endArrow=open;endSize=8;strokeColor=#ff0000;rounded=0;" parent="1" source="WIBwwws4gp8x0dsZTthk-27" edge="1">
          <mxGeometry relative="1" as="geometry">
            <mxPoint x="162" y="998" as="targetPoint" />
          </mxGeometry>
        </mxCell>
        <mxCell id="WIBwwws4gp8x0dsZTthk-29" value="1. Create Node for Your page" style="text;html=1;align=center;verticalAlign=middle;resizable=0;points=[];autosize=1;strokeColor=none;fillColor=none;" parent="1" vertex="1">
          <mxGeometry x="8" y="617" width="174" height="26" as="geometry" />
        </mxCell>
        <mxCell id="WIBwwws4gp8x0dsZTthk-30" value="" style="rounded=0;whiteSpace=wrap;html=1;" parent="1" vertex="1">
          <mxGeometry x="163" y="966" width="145" height="65" as="geometry" />
        </mxCell>
        <mxCell id="WIBwwws4gp8x0dsZTthk-31" value="CMSNavigationNode" style="text;html=1;align=center;verticalAlign=middle;resizable=0;points=[];autosize=1;strokeColor=none;fillColor=none;" parent="1" vertex="1">
          <mxGeometry x="164" y="939" width="130" height="26" as="geometry" />
        </mxCell>
        <mxCell id="WIBwwws4gp8x0dsZTthk-35" value="" style="edgeStyle=orthogonalEdgeStyle;rounded=0;orthogonalLoop=1;jettySize=auto;html=1;entryX=0;entryY=0.462;entryDx=0;entryDy=0;entryPerimeter=0;" parent="1" source="WIBwwws4gp8x0dsZTthk-33" target="WIBwwws4gp8x0dsZTthk-1" edge="1">
          <mxGeometry relative="1" as="geometry">
            <mxPoint x="416" y="996" as="targetPoint" />
          </mxGeometry>
        </mxCell>
        <mxCell id="WIBwwws4gp8x0dsZTthk-33" value="uid: contactPageNavNode" style="text;html=1;align=center;verticalAlign=middle;resizable=0;points=[];autosize=1;strokeColor=none;fillColor=none;" parent="1" vertex="1">
          <mxGeometry x="155" y="983" width="157" height="26" as="geometry" />
        </mxCell>
        <mxCell id="WIBwwws4gp8x0dsZTthk-36" value="2. Add page node as&lt;br&gt;child from parents&lt;br&gt;node" style="text;html=1;align=center;verticalAlign=middle;resizable=0;points=[];autosize=1;strokeColor=none;fillColor=none;" parent="1" vertex="1">
          <mxGeometry x="312" y="994" width="128" height="55" as="geometry" />
        </mxCell>
        <mxCell id="WIBwwws4gp8x0dsZTthk-38" value="" style="line;strokeWidth=2;rotatable=0;dashed=0;labelPosition=right;align=left;verticalAlign=middle;spacingTop=0;spacingLeft=6;points=[];portConstraint=eastwest;strokeColor=#FF0000;" parent="1" vertex="1">
          <mxGeometry x="570" y="1124" width="75" height="10" as="geometry" />
        </mxCell>
        <mxCell id="WIBwwws4gp8x0dsZTthk-39" value="" style="line;strokeWidth=2;rotatable=0;dashed=0;labelPosition=right;align=left;verticalAlign=middle;spacingTop=0;spacingLeft=6;points=[];portConstraint=eastwest;strokeColor=#FF0000;" parent="1" vertex="1">
          <mxGeometry x="803.5" y="1086.5" width="75" height="10" as="geometry" />
        </mxCell>
        <mxCell id="WIBwwws4gp8x0dsZTthk-40" value="" style="line;strokeWidth=2;rotatable=0;dashed=0;labelPosition=right;align=left;verticalAlign=middle;spacingTop=0;spacingLeft=6;points=[];portConstraint=eastwest;strokeColor=#009900;" parent="1" vertex="1">
          <mxGeometry x="193" y="1001" width="108" height="10" as="geometry" />
        </mxCell>
        <mxCell id="WIBwwws4gp8x0dsZTthk-41" value="" style="line;strokeWidth=2;rotatable=0;dashed=0;labelPosition=right;align=left;verticalAlign=middle;spacingTop=0;spacingLeft=6;points=[];portConstraint=eastwest;strokeColor=#009900;" parent="1" vertex="1">
          <mxGeometry x="802.5" y="1069" width="108" height="10" as="geometry" />
        </mxCell>
        <mxCell id="J3z0_G1Zwxdb5pVRwMx7-1" value="" style="rounded=0;whiteSpace=wrap;html=1;" parent="1" vertex="1">
          <mxGeometry x="1776.5" y="428" width="650" height="144" as="geometry" />
        </mxCell>
        <mxCell id="J3z0_G1Zwxdb5pVRwMx7-2" value="" style="swimlane;startSize=0;" parent="1" vertex="1">
          <mxGeometry x="1717" y="148" width="764" height="230" as="geometry" />
        </mxCell>
        <mxCell id="J3z0_G1Zwxdb5pVRwMx7-3" value="Section4Slot-Homepage slot" style="text;html=1;align=center;verticalAlign=middle;resizable=0;points=[];autosize=1;strokeColor=none;fillColor=none;" parent="J3z0_G1Zwxdb5pVRwMx7-2" vertex="1">
          <mxGeometry width="180" height="30" as="geometry" />
        </mxCell>
        <mxCell id="J3z0_G1Zwxdb5pVRwMx7-4" value="" style="swimlane;startSize=0;" parent="J3z0_G1Zwxdb5pVRwMx7-2" vertex="1">
          <mxGeometry x="20" y="40" width="322" height="160" as="geometry" />
        </mxCell>
        <mxCell id="J3z0_G1Zwxdb5pVRwMx7-5" value="TciSelectedSupportingBannerComponent instance" style="text;html=1;align=center;verticalAlign=middle;resizable=0;points=[];autosize=1;strokeColor=none;fillColor=none;" parent="J3z0_G1Zwxdb5pVRwMx7-4" vertex="1">
          <mxGeometry width="290" height="30" as="geometry" />
        </mxCell>
        <mxCell id="J3z0_G1Zwxdb5pVRwMx7-6" value="Feature&amp;nbsp;&lt;br&gt;products" style="whiteSpace=wrap;html=1;aspect=fixed;" parent="J3z0_G1Zwxdb5pVRwMx7-4" vertex="1">
          <mxGeometry y="60" width="100" height="100" as="geometry" />
        </mxCell>
        <mxCell id="J3z0_G1Zwxdb5pVRwMx7-7" value="" style="rounded=0;whiteSpace=wrap;html=1;" parent="J3z0_G1Zwxdb5pVRwMx7-4" vertex="1">
          <mxGeometry x="110" y="60" width="200" height="100" as="geometry" />
        </mxCell>
        <mxCell id="J3z0_G1Zwxdb5pVRwMx7-8" value="Banner 1" style="rounded=0;whiteSpace=wrap;html=1;" parent="J3z0_G1Zwxdb5pVRwMx7-4" vertex="1">
          <mxGeometry x="110" y="60" width="70" height="100" as="geometry" />
        </mxCell>
        <mxCell id="J3z0_G1Zwxdb5pVRwMx7-9" value="Banner 3" style="rounded=0;whiteSpace=wrap;html=1;" parent="J3z0_G1Zwxdb5pVRwMx7-4" vertex="1">
          <mxGeometry x="240" y="60" width="70" height="100" as="geometry" />
        </mxCell>
        <mxCell id="J3z0_G1Zwxdb5pVRwMx7-10" value="Banner 2" style="rounded=0;whiteSpace=wrap;html=1;" parent="J3z0_G1Zwxdb5pVRwMx7-4" vertex="1">
          <mxGeometry x="170" y="60" width="70" height="100" as="geometry" />
        </mxCell>
        <mxCell id="J3z0_G1Zwxdb5pVRwMx7-11" value="supportingSearchComponentList" style="text;html=1;align=center;verticalAlign=middle;resizable=0;points=[];autosize=1;strokeColor=none;fillColor=none;" parent="J3z0_G1Zwxdb5pVRwMx7-4" vertex="1">
          <mxGeometry x="115" y="30" width="200" height="30" as="geometry" />
        </mxCell>
        <mxCell id="J3z0_G1Zwxdb5pVRwMx7-12" value="name" style="text;html=1;align=center;verticalAlign=middle;resizable=0;points=[];autosize=1;strokeColor=none;fillColor=none;" parent="J3z0_G1Zwxdb5pVRwMx7-4" vertex="1">
          <mxGeometry x="25" y="30" width="50" height="30" as="geometry" />
        </mxCell>
        <mxCell id="J3z0_G1Zwxdb5pVRwMx7-13" value="TciSupportingSearchComponent Model" style="text;html=1;align=center;verticalAlign=middle;resizable=0;points=[];autosize=1;strokeColor=none;fillColor=none;" parent="1" vertex="1">
          <mxGeometry x="1771.5" y="428" width="230" height="30" as="geometry" />
        </mxCell>
        <mxCell id="J3z0_G1Zwxdb5pVRwMx7-14" value="TciSupportingResearchComponent1" style="rounded=0;whiteSpace=wrap;html=1;" parent="1" vertex="1">
          <mxGeometry x="1786.5" y="458" width="200" height="30" as="geometry" />
        </mxCell>
        <mxCell id="J3z0_G1Zwxdb5pVRwMx7-15" value="TciSupportingResearch&lt;br&gt;Component3" style="rounded=0;whiteSpace=wrap;html=1;" parent="1" vertex="1">
          <mxGeometry x="1996" y="458" width="129.5" height="30" as="geometry" />
        </mxCell>
        <mxCell id="J3z0_G1Zwxdb5pVRwMx7-16" value="TciSupportingResearchComponent5" style="rounded=0;whiteSpace=wrap;html=1;" parent="1" vertex="1">
          <mxGeometry x="2216.5" y="458" width="200" height="30" as="geometry" />
        </mxCell>
        <mxCell id="J3z0_G1Zwxdb5pVRwMx7-17" value="TciSupportingResearchComponent..." style="rounded=0;whiteSpace=wrap;html=1;" parent="1" vertex="1">
          <mxGeometry x="2216.5" y="535" width="200" height="30" as="geometry" />
        </mxCell>
        <mxCell id="J3z0_G1Zwxdb5pVRwMx7-18" value="" style="endArrow=classic;html=1;rounded=0;entryX=0.5;entryY=0;entryDx=0;entryDy=0;exitX=0.5;exitY=1;exitDx=0;exitDy=0;" parent="1" source="J3z0_G1Zwxdb5pVRwMx7-9" target="J3z0_G1Zwxdb5pVRwMx7-15" edge="1">
          <mxGeometry width="50" height="50" relative="1" as="geometry">
            <mxPoint x="2112" y="355" as="sourcePoint" />
            <mxPoint x="2162" y="305" as="targetPoint" />
          </mxGeometry>
        </mxCell>
        <mxCell id="J3z0_G1Zwxdb5pVRwMx7-19" value="" style="endArrow=classic;html=1;rounded=0;exitX=0.5;exitY=1;exitDx=0;exitDy=0;" parent="1" source="J3z0_G1Zwxdb5pVRwMx7-10" target="J3z0_G1Zwxdb5pVRwMx7-38" edge="1">
          <mxGeometry width="50" height="50" relative="1" as="geometry">
            <mxPoint x="1845" y="318" as="sourcePoint" />
            <mxPoint x="2089" y="445" as="targetPoint" />
          </mxGeometry>
        </mxCell>
        <mxCell id="J3z0_G1Zwxdb5pVRwMx7-20" value="" style="endArrow=classic;html=1;rounded=0;entryX=0.5;entryY=0;entryDx=0;entryDy=0;exitX=0.5;exitY=1;exitDx=0;exitDy=0;" parent="1" source="J3z0_G1Zwxdb5pVRwMx7-8" target="J3z0_G1Zwxdb5pVRwMx7-14" edge="1">
          <mxGeometry width="50" height="50" relative="1" as="geometry">
            <mxPoint x="1751" y="366.5" as="sourcePoint" />
            <mxPoint x="1995" y="493.5" as="targetPoint" />
          </mxGeometry>
        </mxCell>
        <mxCell id="J3z0_G1Zwxdb5pVRwMx7-21" value="Reference" style="text;html=1;align=center;verticalAlign=middle;resizable=0;points=[];autosize=1;strokeColor=none;fillColor=none;" parent="1" vertex="1">
          <mxGeometry x="1814" y="384" width="73" height="26" as="geometry" />
        </mxCell>
        <mxCell id="J3z0_G1Zwxdb5pVRwMx7-22" value="Reference" style="text;html=1;align=center;verticalAlign=middle;resizable=0;points=[];autosize=1;strokeColor=none;fillColor=none;" parent="1" vertex="1">
          <mxGeometry x="2154" y="384" width="73" height="26" as="geometry" />
        </mxCell>
        <mxCell id="J3z0_G1Zwxdb5pVRwMx7-23" value="Reference" style="text;html=1;align=center;verticalAlign=middle;resizable=0;points=[];autosize=1;strokeColor=none;fillColor=none;" parent="1" vertex="1">
          <mxGeometry x="1934" y="384" width="73" height="26" as="geometry" />
        </mxCell>
        <mxCell id="J3z0_G1Zwxdb5pVRwMx7-24" value="" style="endArrow=classic;html=1;rounded=0;entryX=0.5;entryY=0;entryDx=0;entryDy=0;exitX=0.5;exitY=1;exitDx=0;exitDy=0;" parent="1" source="J3z0_G1Zwxdb5pVRwMx7-33" target="J3z0_G1Zwxdb5pVRwMx7-40" edge="1">
          <mxGeometry width="50" height="50" relative="1" as="geometry">
            <mxPoint x="2591" y="348" as="sourcePoint" />
            <mxPoint x="2637" y="419" as="targetPoint" />
          </mxGeometry>
        </mxCell>
        <mxCell id="J3z0_G1Zwxdb5pVRwMx7-25" value="" style="endArrow=classic;html=1;rounded=0;exitX=0.5;exitY=1;exitDx=0;exitDy=0;" parent="1" source="J3z0_G1Zwxdb5pVRwMx7-34" target="J3z0_G1Zwxdb5pVRwMx7-16" edge="1">
          <mxGeometry width="50" height="50" relative="1" as="geometry">
            <mxPoint x="2324" y="311" as="sourcePoint" />
            <mxPoint x="2422" y="419" as="targetPoint" />
          </mxGeometry>
        </mxCell>
        <mxCell id="J3z0_G1Zwxdb5pVRwMx7-26" value="" style="endArrow=classic;html=1;rounded=0;entryX=0.5;entryY=0;entryDx=0;entryDy=0;exitX=0.5;exitY=1;exitDx=0;exitDy=0;" parent="1" source="J3z0_G1Zwxdb5pVRwMx7-32" target="J3z0_G1Zwxdb5pVRwMx7-39" edge="1">
          <mxGeometry width="50" height="50" relative="1" as="geometry">
            <mxPoint x="2230" y="359.5" as="sourcePoint" />
            <mxPoint x="2207" y="419" as="targetPoint" />
          </mxGeometry>
        </mxCell>
        <mxCell id="J3z0_G1Zwxdb5pVRwMx7-27" value="Reference" style="text;html=1;align=center;verticalAlign=middle;resizable=0;points=[];autosize=1;strokeColor=none;fillColor=none;" parent="1" vertex="1">
          <mxGeometry x="2254.25" y="387" width="73" height="26" as="geometry" />
        </mxCell>
        <mxCell id="J3z0_G1Zwxdb5pVRwMx7-28" value="Reference" style="text;html=1;align=center;verticalAlign=middle;resizable=0;points=[];autosize=1;strokeColor=none;fillColor=none;" parent="1" vertex="1">
          <mxGeometry x="2368" y="387" width="73" height="26" as="geometry" />
        </mxCell>
        <mxCell id="J3z0_G1Zwxdb5pVRwMx7-29" value="" style="swimlane;startSize=0;" parent="1" vertex="1">
          <mxGeometry x="2121" y="189" width="339.5" height="160" as="geometry" />
        </mxCell>
        <mxCell id="J3z0_G1Zwxdb5pVRwMx7-30" value="Feature&amp;nbsp;&lt;br&gt;products New" style="whiteSpace=wrap;html=1;aspect=fixed;" parent="J3z0_G1Zwxdb5pVRwMx7-29" vertex="1">
          <mxGeometry y="60" width="100" height="100" as="geometry" />
        </mxCell>
        <mxCell id="J3z0_G1Zwxdb5pVRwMx7-31" value="" style="rounded=0;whiteSpace=wrap;html=1;" parent="J3z0_G1Zwxdb5pVRwMx7-29" vertex="1">
          <mxGeometry x="110" y="60" width="200" height="100" as="geometry" />
        </mxCell>
        <mxCell id="J3z0_G1Zwxdb5pVRwMx7-32" value="Banner 1&amp;nbsp;" style="rounded=0;whiteSpace=wrap;html=1;" parent="J3z0_G1Zwxdb5pVRwMx7-29" vertex="1">
          <mxGeometry x="110" y="60" width="70" height="100" as="geometry" />
        </mxCell>
        <mxCell id="J3z0_G1Zwxdb5pVRwMx7-33" value="Banner 3" style="rounded=0;whiteSpace=wrap;html=1;" parent="J3z0_G1Zwxdb5pVRwMx7-29" vertex="1">
          <mxGeometry x="240" y="60" width="70" height="100" as="geometry" />
        </mxCell>
        <mxCell id="J3z0_G1Zwxdb5pVRwMx7-34" value="Banner 2" style="rounded=0;whiteSpace=wrap;html=1;" parent="J3z0_G1Zwxdb5pVRwMx7-29" vertex="1">
          <mxGeometry x="170" y="60" width="70" height="100" as="geometry" />
        </mxCell>
        <mxCell id="J3z0_G1Zwxdb5pVRwMx7-35" value="supportingSearchComponentList" style="text;html=1;align=center;verticalAlign=middle;resizable=0;points=[];autosize=1;strokeColor=none;fillColor=none;" parent="J3z0_G1Zwxdb5pVRwMx7-29" vertex="1">
          <mxGeometry x="115" y="30" width="200" height="30" as="geometry" />
        </mxCell>
        <mxCell id="J3z0_G1Zwxdb5pVRwMx7-36" value="name" style="text;html=1;align=center;verticalAlign=middle;resizable=0;points=[];autosize=1;strokeColor=none;fillColor=none;" parent="J3z0_G1Zwxdb5pVRwMx7-29" vertex="1">
          <mxGeometry x="25" y="30" width="50" height="30" as="geometry" />
        </mxCell>
        <mxCell id="J3z0_G1Zwxdb5pVRwMx7-37" value="TciSelectedSupportingBannerComponent instance &lt;b&gt;cloned&lt;/b&gt;" style="text;html=1;align=center;verticalAlign=middle;resizable=0;points=[];autosize=1;strokeColor=none;fillColor=none;" parent="J3z0_G1Zwxdb5pVRwMx7-29" vertex="1">
          <mxGeometry x="9.5" y="-2" width="330" height="30" as="geometry" />
        </mxCell>
        <mxCell id="J3z0_G1Zwxdb5pVRwMx7-38" value="TciSupportingResearchComponent2" style="rounded=0;whiteSpace=wrap;html=1;" parent="1" vertex="1">
          <mxGeometry x="1786.5" y="497" width="200" height="30" as="geometry" />
        </mxCell>
        <mxCell id="J3z0_G1Zwxdb5pVRwMx7-39" value="TciSupportingResearch&lt;br&gt;Component4" style="rounded=0;whiteSpace=wrap;html=1;" parent="1" vertex="1">
          <mxGeometry x="2068.5" y="497" width="130.5" height="30" as="geometry" />
        </mxCell>
        <mxCell id="J3z0_G1Zwxdb5pVRwMx7-40" value="TciSupportingResearchComponent6" style="rounded=0;whiteSpace=wrap;html=1;" parent="1" vertex="1">
          <mxGeometry x="2216.5" y="497" width="200" height="30" as="geometry" />
        </mxCell>
        <mxCell id="V3DHYtwYLtmTEysQ-wQC-1" value="" style="rounded=0;whiteSpace=wrap;html=1;" vertex="1" parent="1">
          <mxGeometry x="755.5" y="594" width="650" height="110" as="geometry" />
        </mxCell>
        <mxCell id="V3DHYtwYLtmTEysQ-wQC-2" value="&lt;pre style=&quot;background-color:#2b2b2b;color:#a9b7c6;font-family:&#39;JetBrains Mono&#39;,monospace;font-size:9.8pt;&quot;&gt;SimpleBannerComponentModel&lt;/pre&gt;" style="text;html=1;align=center;verticalAlign=middle;resizable=0;points=[];autosize=1;strokeColor=none;fillColor=none;" vertex="1" parent="1">
          <mxGeometry x="763" y="576" width="205" height="54" as="geometry" />
        </mxCell>
        <mxCell id="V3DHYtwYLtmTEysQ-wQC-3" value="Banner 1" style="rounded=0;whiteSpace=wrap;html=1;" vertex="1" parent="1">
          <mxGeometry x="765.5" y="624" width="200" height="30" as="geometry" />
        </mxCell>
        <mxCell id="V3DHYtwYLtmTEysQ-wQC-4" value="Banner 2" style="rounded=0;whiteSpace=wrap;html=1;" vertex="1" parent="1">
          <mxGeometry x="980.5" y="624" width="200" height="30" as="geometry" />
        </mxCell>
        <mxCell id="V3DHYtwYLtmTEysQ-wQC-5" value="Banner 3" style="rounded=0;whiteSpace=wrap;html=1;" vertex="1" parent="1">
          <mxGeometry x="1195.5" y="624" width="200" height="30" as="geometry" />
        </mxCell>
        <mxCell id="V3DHYtwYLtmTEysQ-wQC-6" value="Banner n..." style="rounded=0;whiteSpace=wrap;html=1;" vertex="1" parent="1">
          <mxGeometry x="980.5" y="664" width="200" height="30" as="geometry" />
        </mxCell>
        <mxCell id="V3DHYtwYLtmTEysQ-wQC-7" style="edgeStyle=orthogonalEdgeStyle;rounded=0;orthogonalLoop=1;jettySize=auto;html=1;entryX=0.5;entryY=0;entryDx=0;entryDy=0;fillColor=#e51400;strokeColor=#B20000;strokeWidth=2;" edge="1" parent="1" source="vAXPG5cR5VqlfgmjMZMS-52" target="V3DHYtwYLtmTEysQ-wQC-3">
          <mxGeometry relative="1" as="geometry" />
        </mxCell>
        <mxCell id="vAXPG5cR5VqlfgmjMZMS-53" value="TciSupportingResearchComponent2" style="rounded=0;whiteSpace=wrap;html=1;" parent="1" vertex="1">
          <mxGeometry x="980.5" y="470" width="200" height="30" as="geometry" />
        </mxCell>
        <mxCell id="V3DHYtwYLtmTEysQ-wQC-9" style="edgeStyle=orthogonalEdgeStyle;rounded=0;orthogonalLoop=1;jettySize=auto;html=1;fillColor=#e3c800;strokeColor=#B09500;strokeWidth=2;" edge="1" parent="1">
          <mxGeometry relative="1" as="geometry">
            <mxPoint x="1084" y="500" as="sourcePoint" />
            <mxPoint x="1084" y="624" as="targetPoint" />
          </mxGeometry>
        </mxCell>
        <mxCell id="V3DHYtwYLtmTEysQ-wQC-10" style="edgeStyle=orthogonalEdgeStyle;rounded=0;orthogonalLoop=1;jettySize=auto;html=1;fillColor=#60a917;strokeColor=#2D7600;strokeWidth=2;" edge="1" parent="1">
          <mxGeometry relative="1" as="geometry">
            <mxPoint x="1295" y="500" as="sourcePoint" />
            <mxPoint x="1295" y="628" as="targetPoint" />
          </mxGeometry>
        </mxCell>
        <mxCell id="V3DHYtwYLtmTEysQ-wQC-11" value="" style="rounded=0;whiteSpace=wrap;html=1;" vertex="1" parent="1">
          <mxGeometry x="1774" y="625" width="650" height="110" as="geometry" />
        </mxCell>
        <mxCell id="V3DHYtwYLtmTEysQ-wQC-12" value="&lt;pre style=&quot;background-color:#2b2b2b;color:#a9b7c6;font-family:&#39;JetBrains Mono&#39;,monospace;font-size:9.8pt;&quot;&gt;SimpleBannerComponentModel&lt;/pre&gt;" style="text;html=1;align=center;verticalAlign=middle;resizable=0;points=[];autosize=1;strokeColor=none;fillColor=none;" vertex="1" parent="1">
          <mxGeometry x="1781.5" y="607" width="205" height="54" as="geometry" />
        </mxCell>
        <mxCell id="V3DHYtwYLtmTEysQ-wQC-13" value="Banner 1" style="rounded=0;whiteSpace=wrap;html=1;" vertex="1" parent="1">
          <mxGeometry x="1784" y="655" width="191" height="30" as="geometry" />
        </mxCell>
        <mxCell id="V3DHYtwYLtmTEysQ-wQC-14" value="Banner 2" style="rounded=0;whiteSpace=wrap;html=1;" vertex="1" parent="1">
          <mxGeometry x="1999" y="655" width="200" height="30" as="geometry" />
        </mxCell>
        <mxCell id="V3DHYtwYLtmTEysQ-wQC-15" value="Banner 3" style="rounded=0;whiteSpace=wrap;html=1;" vertex="1" parent="1">
          <mxGeometry x="2214" y="655" width="200" height="30" as="geometry" />
        </mxCell>
        <mxCell id="V3DHYtwYLtmTEysQ-wQC-16" value="Banner n..." style="rounded=0;whiteSpace=wrap;html=1;" vertex="1" parent="1">
          <mxGeometry x="1999" y="695" width="200" height="30" as="geometry" />
        </mxCell>
        <mxCell id="V3DHYtwYLtmTEysQ-wQC-17" style="edgeStyle=orthogonalEdgeStyle;rounded=0;orthogonalLoop=1;jettySize=auto;html=1;entryX=0;entryY=0.5;entryDx=0;entryDy=0;strokeColor=#B20000;strokeWidth=2;fillColor=#e51400;" edge="1" parent="1" source="J3z0_G1Zwxdb5pVRwMx7-14" target="V3DHYtwYLtmTEysQ-wQC-13">
          <mxGeometry relative="1" as="geometry">
            <Array as="points">
              <mxPoint x="1764" y="473" />
              <mxPoint x="1764" y="670" />
            </Array>
          </mxGeometry>
        </mxCell>
        <mxCell id="V3DHYtwYLtmTEysQ-wQC-18" style="edgeStyle=orthogonalEdgeStyle;rounded=0;orthogonalLoop=1;jettySize=auto;html=1;entryX=1;entryY=0.5;entryDx=0;entryDy=0;strokeWidth=2;fillColor=#e51400;strokeColor=#B20000;" edge="1" parent="1" source="J3z0_G1Zwxdb5pVRwMx7-39" target="V3DHYtwYLtmTEysQ-wQC-13">
          <mxGeometry relative="1" as="geometry">
            <Array as="points">
              <mxPoint x="2145" y="560" />
              <mxPoint x="1996" y="560" />
              <mxPoint x="1996" y="670" />
            </Array>
          </mxGeometry>
        </mxCell>
        <mxCell id="V3DHYtwYLtmTEysQ-wQC-19" style="edgeStyle=orthogonalEdgeStyle;rounded=0;orthogonalLoop=1;jettySize=auto;html=1;fillColor=#e3c800;strokeColor=#B09500;strokeWidth=2;" edge="1" parent="1" source="J3z0_G1Zwxdb5pVRwMx7-38" target="V3DHYtwYLtmTEysQ-wQC-14">
          <mxGeometry relative="1" as="geometry">
            <Array as="points">
              <mxPoint x="1887" y="541" />
              <mxPoint x="2052" y="541" />
            </Array>
          </mxGeometry>
        </mxCell>
        <mxCell id="V3DHYtwYLtmTEysQ-wQC-22" style="edgeStyle=orthogonalEdgeStyle;rounded=0;orthogonalLoop=1;jettySize=auto;html=1;strokeColor=#B09500;strokeWidth=2;fillColor=#e3c800;" edge="1" parent="1" source="J3z0_G1Zwxdb5pVRwMx7-16">
          <mxGeometry relative="1" as="geometry">
            <mxPoint x="2179" y="655" as="targetPoint" />
            <Array as="points">
              <mxPoint x="2205" y="473" />
              <mxPoint x="2205" y="608" />
              <mxPoint x="2179" y="608" />
            </Array>
          </mxGeometry>
        </mxCell>
        <mxCell id="V3DHYtwYLtmTEysQ-wQC-23" style="edgeStyle=orthogonalEdgeStyle;rounded=0;orthogonalLoop=1;jettySize=auto;html=1;entryX=1;entryY=0.5;entryDx=0;entryDy=0;strokeColor=#2D7600;strokeWidth=2;fillColor=#60a917;" edge="1" parent="1" source="J3z0_G1Zwxdb5pVRwMx7-15" target="V3DHYtwYLtmTEysQ-wQC-15">
          <mxGeometry relative="1" as="geometry">
            <Array as="points">
              <mxPoint x="2061" y="439" />
              <mxPoint x="2459" y="439" />
              <mxPoint x="2459" y="670" />
            </Array>
          </mxGeometry>
        </mxCell>
        <mxCell id="V3DHYtwYLtmTEysQ-wQC-24" style="edgeStyle=orthogonalEdgeStyle;rounded=0;orthogonalLoop=1;jettySize=auto;html=1;strokeColor=#2D7600;strokeWidth=2;fillColor=#60a917;" edge="1" parent="1" source="J3z0_G1Zwxdb5pVRwMx7-40" target="V3DHYtwYLtmTEysQ-wQC-15">
          <mxGeometry relative="1" as="geometry">
            <Array as="points">
              <mxPoint x="2447" y="512" />
              <mxPoint x="2447" y="591" />
              <mxPoint x="2314" y="591" />
            </Array>
          </mxGeometry>
        </mxCell>
      </root>
    </mxGraphModel>
  </diagram>
</mxfile>
